<?xml version="1.0" standalone="no"?>
<!DOCTYPE svg PUBLIC "-//W3C//DTD SVG 20010904//EN"
 "http://www.w3.org/TR/2001/REC-SVG-20010904/DTD/svg10.dtd">
<svg version="1.0" xmlns="http://www.w3.org/2000/svg"
 width="478.000000pt" height="485.000000pt" viewBox="0 0 478.000000 485.000000"
 preserveAspectRatio="xMidYMid meet">

<g transform="translate(0.000000,485.000000) scale(0.100000,-0.100000)"
fill="#000000" stroke="none">
<path d="M2080 4696 c-119 -44 -217 -122 -240 -192 -24 -71 8 -81 106 -35 88
42 170 133 189 214 8 31 0 33 -55 13z"/>
<path d="M2670 4699 c1 -32 42 -103 90 -153 51 -54 153 -111 187 -104 50 10
30 81 -43 154 -63 64 -234 139 -234 103z"/>
<path d="M1684 4594 c-32 -19 -76 -52 -97 -72 -68 -66 -110 -184 -71 -199 24
-9 92 27 141 74 64 62 137 233 100 233 -7 0 -40 -16 -73 -36z"/>
<path d="M3040 4621 c0 -29 42 -135 68 -173 41 -59 123 -120 165 -122 31 -1
32 1 31 35 -2 80 -69 168 -178 233 -60 36 -86 44 -86 27z"/>
<path d="M1343 4450 c-85 -67 -140 -155 -150 -239 -10 -88 42 -89 121 0 53 57
87 138 94 215 3 40 1 64 -5 64 -6 0 -33 -18 -60 -40z"/>
<path d="M3396 4481 c-9 -14 14 -133 34 -178 19 -42 99 -136 131 -154 34 -18
49 0 49 55 0 74 -36 141 -121 220 -69 65 -83 74 -93 57z"/>
<path d="M1978 4433 c7 -3 16 -2 19 1 4 3 -2 6 -13 5 -11 0 -14 -3 -6 -6z"/>
<path d="M1938 4423 c7 -3 16 -2 19 1 4 3 -2 6 -13 5 -11 0 -14 -3 -6 -6z"/>
<path d="M1898 4413 c7 -3 16 -2 19 1 4 3 -2 6 -13 5 -11 0 -14 -3 -6 -6z"/>
<path d="M3030 4371 c317 -113 529 -243 759 -466 181 -175 295 -333 407 -560
291 -592 266 -1286 -67 -1869 -239 -418 -634 -742 -1095 -895 -152 -51 -267
-75 -469 -96 -88 -10 -163 -19 -166 -21 -11 -6 -340 36 -435 57 -134 29 -308
90 -441 156 -600 295 -1012 863 -1104 1523 -19 134 -16 449 5 575 125 744 625
1339 1339 1591 67 23 116 43 110 43 -26 2 -233 -73 -330 -119 -212 -100 -378
-215 -547 -379 -185 -181 -309 -352 -416 -572 -146 -303 -209 -605 -197 -944
19 -544 234 -1024 626 -1397 316 -301 728 -496 1139 -540 61 -7 112 -15 112
-18 0 -3 -34 -16 -76 -29 -77 -24 -263 -111 -319 -150 l-30 -21 28 0 c15 0 60
18 100 39 98 54 211 98 325 127 l95 24 102 -24 c121 -30 231 -72 342 -132 79
-43 113 -53 113 -35 0 25 -258 148 -380 182 -25 7 -48 15 -52 19 -5 3 45 11
110 18 588 60 1135 391 1464 887 81 123 186 338 232 474 272 821 6 1710 -671
2240 -165 129 -397 253 -600 320 -169 56 -178 51 -13 -8z"/>
<path d="M1800 4351 c-47 -9 -60 -18 -60 -40 0 -34 78 -81 168 -100 63 -13
172 -15 172 -2 0 4 -18 29 -40 54 -63 71 -156 105 -240 88z"/>
<path d="M2870 4343 c-48 -17 -140 -103 -140 -130 0 -14 11 -15 85 -9 97 7
183 36 228 76 38 33 32 55 -20 69 -51 15 -99 13 -153 -6z"/>
<path d="M1011 4228 c-28 -35 -61 -88 -72 -118 -21 -54 -29 -156 -15 -178 22
-36 92 23 137 117 19 37 23 64 23 140 1 63 -3 95 -11 98 -6 2 -34 -24 -62 -59z"/>
<path d="M3715 4249 c-10 -61 3 -139 34 -205 31 -65 81 -124 105 -124 45 0 47
122 3 213 -27 54 -110 157 -127 157 -5 0 -11 -18 -15 -41z"/>
<path d="M1495 4226 c-43 -17 -66 -40 -59 -61 3 -7 29 -24 57 -36 44 -20 67
-24 158 -23 58 1 113 5 122 11 17 9 17 11 -2 34 -53 68 -192 106 -276 75z"/>
<path d="M3125 4216 c-50 -24 -114 -81 -102 -92 13 -13 164 -24 214 -14 108
19 152 52 119 89 -40 45 -155 53 -231 17z"/>
<path d="M1256 4065 c-54 -19 -91 -48 -91 -71 0 -51 155 -65 285 -25 l75 23
-35 29 c-38 32 -115 59 -164 59 -17 -1 -49 -7 -70 -15z"/>
<path d="M3399 4066 c-48 -17 -101 -48 -106 -62 -5 -15 34 -30 124 -49 104
-22 213 -7 227 31 9 23 -40 62 -97 79 -61 18 -100 18 -148 1z"/>
<path d="M761 4014 c-82 -105 -114 -291 -59 -346 19 -19 20 -19 40 -1 43 38
71 114 76 201 4 80 -11 172 -29 172 -4 0 -17 -12 -28 -26z"/>
<path d="M3999 4013 c-23 -60 -23 -157 0 -232 24 -80 66 -136 93 -126 26 10
41 70 35 143 -4 51 -15 84 -48 151 -24 46 -50 87 -56 89 -7 2 -18 -9 -24 -25z"/>
<path d="M1038 3865 c-51 -16 -118 -72 -118 -98 0 -62 213 -36 327 38 29 19
23 31 -24 50 -54 23 -131 27 -185 10z"/>
<path d="M3627 3869 c-39 -9 -97 -36 -97 -45 0 -3 38 -23 84 -45 70 -34 98
-42 163 -46 70 -5 80 -3 97 16 19 20 18 21 -20 60 -27 26 -57 44 -94 55 -59
18 -77 18 -133 5z"/>
<path d="M2100 3825 c-160 -22 -347 -69 -482 -121 -54 -20 -68 -30 -66 -44 2
-10 73 -89 158 -176 l154 -157 106 22 c474 97 859 -7 1094 -298 29 -37 56 -73
60 -81 4 -8 -7 3 -25 25 -130 159 -286 262 -484 318 -89 25 -351 35 -463 18
-112 -18 -291 -61 -298 -73 -5 -8 87 -216 106 -240 3 -4 44 12 91 35 313 158
599 137 814 -60 34 -30 39 -37 15 -20 -124 87 -177 114 -270 138 -74 18 -220
16 -300 -6 -114 -30 -316 -148 -384 -223 -18 -21 -18 -22 70 -117 98 -107 252
-250 338 -315 57 -43 71 -59 37 -41 -84 45 -318 241 -489 410 -105 104 -133
124 -146 102 -9 -14 -126 -1113 -120 -1123 3 -4 14 -8 24 -8 38 0 47 37 54
215 4 94 11 174 16 178 12 13 370 118 380 112 10 -6 40 -92 40 -115 0 -12 -43
-30 -179 -73 -98 -31 -183 -62 -188 -69 -6 -7 -20 -96 -32 -198 -46 -390 -79
-547 -137 -662 -13 -27 -21 -48 -16 -48 18 0 573 190 687 235 256 101 385 187
385 255 0 11 -14 32 -30 47 -85 75 -97 172 -41 322 17 46 39 93 48 103 17 19
18 19 38 -5 15 -20 63 -39 210 -85 105 -33 191 -59 192 -58 1 1 -2 20 -8 42
-15 54 -5 146 27 243 35 107 54 131 104 131 31 0 43 6 63 32 l25 31 198 -27
c264 -35 254 -35 254 12 0 20 -9 99 -20 174 -62 420 -201 726 -430 941 -167
158 -385 260 -645 302 -112 18 -402 18 -535 0z"/>
<path d="M516 3697 c-33 -73 -49 -161 -42 -219 11 -82 48 -140 77 -122 5 3 19
24 31 47 18 35 22 59 23 137 0 83 -3 102 -27 153 -15 31 -30 57 -33 57 -3 0
-17 -24 -29 -53z"/>
<path d="M4229 3704 c-47 -109 -47 -243 2 -322 24 -41 46 -39 73 8 42 71 17
293 -39 349 -12 13 -17 8 -36 -35z"/>
<path d="M835 3621 c-75 -34 -138 -120 -104 -142 40 -28 207 31 293 103 l39
32 -29 13 c-44 19 -152 16 -199 -6z"/>
<path d="M3781 3631 c-39 -11 -35 -26 17 -65 77 -56 157 -89 221 -90 51 -1 56
1 59 22 5 34 -40 86 -100 116 -53 26 -138 34 -197 17z"/>
<path d="M336 3369 c-18 -60 -21 -176 -6 -230 14 -51 52 -103 77 -107 34 -5
48 32 48 133 0 82 -3 97 -32 156 -18 36 -41 73 -52 83 -19 17 -20 17 -35 -35z"/>
<path d="M4420 3391 c-11 -17 -33 -56 -48 -88 -23 -49 -27 -71 -26 -144 0 -65
4 -93 17 -113 22 -33 32 -33 62 0 35 37 58 117 57 196 0 70 -18 164 -32 173
-5 3 -18 -8 -30 -24z"/>
<path d="M692 3358 c-72 -35 -134 -122 -118 -164 8 -22 70 -12 136 21 51 26
170 133 170 153 0 21 -138 14 -188 -10z"/>
<path d="M3920 3369 c0 -24 125 -132 184 -160 97 -46 137 -36 121 29 -10 39
-92 115 -141 130 -52 15 -164 16 -164 1z"/>
<path d="M648 3096 c-88 -24 -164 -105 -175 -185 l-6 -41 35 0 c50 0 132 61
195 145 29 39 53 76 53 83 0 15 -40 15 -102 -2z"/>
<path d="M4055 3100 c-9 -15 77 -132 130 -176 47 -38 110 -65 132 -57 31 12 6
96 -46 155 -47 54 -197 108 -216 78z"/>
<path d="M214 3035 c-10 -41 2 -174 22 -228 18 -52 81 -127 107 -127 35 0 39
127 6 215 -20 55 -91 154 -116 162 -7 3 -15 -8 -19 -22z"/>
<path d="M4522 3006 c-68 -76 -94 -144 -90 -245 3 -65 6 -76 22 -79 26 -5 81
52 107 112 24 57 39 220 22 250 -8 15 -17 10 -61 -38z"/>
<path d="M592 2801 c-85 -29 -150 -104 -166 -192 -15 -84 27 -92 107 -19 50
45 112 144 132 208 8 27 -2 28 -73 3z"/>
<path d="M4135 2810 c-3 -4 13 -44 35 -87 66 -132 185 -226 205 -163 10 32
-22 126 -57 166 -45 51 -168 108 -183 84z"/>
<path d="M150 2656 c0 -104 48 -224 115 -285 51 -47 82 -53 91 -17 8 32 -11
116 -37 168 -25 49 -95 126 -138 151 l-31 18 0 -35z"/>
<path d="M4594 2651 c-88 -63 -146 -166 -148 -260 -1 -53 0 -56 25 -59 40 -5
120 86 148 168 25 74 39 180 24 180 -6 0 -28 -13 -49 -29z"/>
<path d="M575 2498 c-81 -42 -130 -108 -141 -192 -9 -60 1 -96 26 -96 54 0
135 123 164 248 16 70 13 73 -49 40z"/>
<path d="M4165 2493 c25 -108 60 -187 112 -243 37 -42 76 -53 87 -24 19 49 -3
140 -48 199 -26 34 -89 76 -134 90 -21 6 -22 4 -17 -22z"/>
<path d="M150 2281 c0 -11 12 -53 27 -93 22 -59 39 -85 87 -134 128 -128 186
-71 93 89 -31 52 -91 108 -146 137 -50 25 -61 25 -61 1z"/>
<path d="M4593 2279 c-89 -44 -175 -150 -197 -241 -19 -82 55 -75 143 13 54
55 136 249 105 249 -5 0 -28 -9 -51 -21z"/>
<path d="M595 2188 c-22 -18 -46 -39 -53 -48 -53 -61 -71 -196 -32 -241 l20
-24 34 36 c18 20 43 62 56 95 23 61 40 214 24 214 -5 0 -27 -15 -49 -32z"/>
<path d="M4146 2211 c-10 -15 14 -161 35 -217 22 -58 71 -118 91 -112 35 12
49 105 26 180 -19 66 -134 178 -152 149z"/>
<path d="M214 1903 c27 -107 173 -253 253 -253 45 0 51 20 22 81 -40 86 -149
170 -253 193 -27 7 -28 6 -22 -21z"/>
<path d="M684 1907 c-16 -14 -43 -49 -59 -79 -23 -43 -29 -65 -29 -118 -1
-130 56 -171 104 -75 20 41 25 68 28 150 2 55 0 111 -5 123 l-9 24 -30 -25z"/>
<path d="M4075 1911 c-13 -43 -8 -198 9 -249 18 -53 57 -98 76 -87 22 14 40
74 40 137 0 74 -23 127 -79 182 -37 36 -39 37 -46 17z"/>
<path d="M4505 1902 c-72 -31 -100 -50 -142 -95 -48 -52 -73 -96 -73 -130 0
-64 108 -29 192 61 38 40 108 155 108 177 0 10 -46 3 -85 -13z"/>
<path d="M802 1623 c-57 -82 -72 -154 -48 -235 8 -30 27 -65 41 -78 25 -24 25
-24 45 -4 41 41 46 171 10 302 -13 49 -22 52 -48 15z"/>
<path d="M3945 1598 c-34 -111 -30 -241 9 -293 36 -48 96 50 96 155 0 55 -5
74 -33 124 -18 33 -38 61 -45 64 -6 2 -18 -20 -27 -50z"/>
<path d="M330 1564 c0 -12 24 -51 58 -92 93 -114 282 -187 282 -108 0 28 -69
109 -121 141 -54 35 -219 79 -219 59z"/>
<path d="M4345 1546 c-89 -28 -178 -95 -211 -159 -33 -61 41 -75 142 -27 51
25 147 117 177 169 l18 31 -43 -1 c-24 0 -61 -6 -83 -13z"/>
<path d="M972 1370 c-34 -55 -48 -133 -33 -188 23 -87 84 -158 115 -133 37 31
23 180 -28 286 l-33 70 -21 -35z"/>
<path d="M3775 1350 c-52 -102 -71 -243 -39 -288 20 -29 29 -28 61 6 67 71 82
185 38 280 -13 28 -26 52 -29 52 -3 0 -17 -22 -31 -50z"/>
<path d="M536 1231 l-29 -6 65 -61 c73 -68 138 -103 208 -111 108 -13 133 27
58 91 -87 75 -205 109 -302 87z"/>
<path d="M4080 1213 c-51 -17 -113 -58 -150 -97 -36 -40 -19 -60 54 -64 47 -2
70 2 122 27 59 27 174 122 174 142 0 15 -152 9 -200 -8z"/>
<path d="M1180 1155 c-39 -101 -20 -205 51 -278 67 -69 84 -63 83 30 0 62 -5
81 -37 145 -20 40 -48 86 -61 103 l-25 29 -11 -29z"/>
<path d="M3571 1140 c-77 -104 -121 -251 -89 -294 14 -17 16 -18 47 -2 37 19
87 92 102 150 11 42 5 113 -15 161 l-12 30 -33 -45z"/>
<path d="M1415 942 c-13 -95 30 -198 104 -248 46 -31 79 -31 86 -1 7 28 -24
123 -56 169 -26 39 -110 128 -120 128 -4 0 -10 -21 -14 -48z"/>
<path d="M3301 933 c-61 -69 -102 -147 -109 -208 -4 -35 -1 -46 12 -51 43 -17
130 57 160 137 19 50 19 170 0 176 -7 2 -35 -22 -63 -54z"/>
<path d="M782 942 c-13 -4 -24 -11 -25 -17 -2 -17 121 -94 175 -110 99 -29
208 -13 208 30 0 21 -61 63 -124 85 -56 20 -182 26 -234 12z"/>
<path d="M3777 930 c-102 -40 -147 -99 -91 -120 39 -15 134 -11 189 8 55 19
165 87 165 101 0 34 -185 42 -263 11z"/>
<path d="M1690 803 c0 -82 17 -124 73 -178 55 -53 112 -79 141 -63 23 13 20
32 -16 100 -31 59 -106 135 -167 171 l-31 18 0 -48z"/>
<path d="M3027 799 c-78 -60 -136 -140 -144 -198 -5 -39 -4 -41 20 -41 64 0
144 57 176 125 24 51 40 165 24 165 -6 0 -40 -23 -76 -51z"/>
<path d="M1155 720 c-54 -12 -115 -38 -115 -50 0 -5 17 -18 38 -29 141 -72
347 -67 347 9 0 21 -9 28 -57 48 -65 25 -155 35 -213 22z"/>
<path d="M3479 717 c-60 -17 -113 -49 -117 -70 -9 -44 153 -73 253 -46 53 15
145 58 145 69 0 15 -112 51 -174 55 -34 3 -81 -1 -107 -8z"/>
<path d="M1504 546 c-59 -18 -145 -68 -141 -80 7 -21 138 -47 214 -43 92 5
166 40 171 79 3 24 -2 28 -49 42 -63 19 -139 20 -195 2z"/>
<path d="M3096 547 c-21 -6 -44 -20 -50 -30 -9 -15 -6 -22 17 -42 64 -57 213
-69 331 -29 l49 17 -24 20 c-13 11 -49 31 -79 45 -64 30 -182 39 -244 19z"/>
</g>
</svg>
